<svg width="22" height="22" viewBox="0 0 22 22" fill="none" xmlns="http://www.w3.org/2000/svg">
<path d="M6.95084 21.4591C7.33625 21.5362 7.46839 21.7234 7.8648 21.8335C8.19515 21.9106 8.67966 21.9106 8.98798 21.9436C9.59361 22.0097 10.1992 21.9436 10.8049 21.9216C12.5007 21.8886 14.1634 21.4591 15.683 20.7214C16.1895 20.4901 16.663 20.1928 17.1255 19.8955C17.1585 19.8735 17.2026 19.8404 17.2356 19.8184L17.2687 19.7854C17.8963 19.3449 18.4909 18.8384 18.9754 18.2548C19.2838 17.9464 19.8674 17.0545 19.9445 16.9884C20.0766 16.8783 20.451 15.9974 20.5281 15.8543C20.5831 15.7441 21.0016 14.5879 21.0346 14.2686C21.1667 13.9272 21.2989 13.5859 21.409 13.2445C21.6733 12.6279 21.8605 11.2845 21.7283 10.5907L21.6623 9.77588C21.6623 9.74285 21.6623 9.70982 21.6623 9.66577C21.6623 9.48958 21.6072 9.29138 21.5522 9.09317C21.1778 6.82479 20.0436 4.67754 18.3258 3.15795C17.7091 2.6404 17.0705 2.19994 16.4098 1.73746C15.2535 0.90058 13.8661 0.383038 12.4456 0.140784C11.7629 0.0306685 11.3114 0.140784 10.4085 0.019657C10.0121 0.019657 9.25226 -0.0464123 8.85584 0.0637031C8.14009 0.206853 7.79873 0.372026 7.12703 0.636303C5.64047 1.24194 4.26403 2.13387 3.15186 3.27907C2.86556 3.5874 2.54623 3.86268 2.2379 4.16C2.00666 4.41326 1.77542 4.65552 1.57721 4.90878C1.40103 5.17306 1.25788 5.45936 1.14776 5.77869C0.9936 6.38433 0.85045 6.86884 0.575162 7.48548C0.123688 8.46551 0.0245846 9.56666 0.00256151 10.6458C-0.0304731 12.3636 0.255827 13.8942 0.872473 15.5129C1.04866 15.9864 1.15877 16.5149 1.47811 16.9114C2.25993 17.8694 2.82152 18.8604 3.84559 19.7854C4.06582 19.9616 4.49527 20.1818 4.93573 20.2589C5.37619 20.336 5.79463 20.3139 5.98183 20.1267C6.19105 19.9175 6.24611 19.5321 6.44431 19.3009C6.87376 18.7503 6.89579 17.4179 6.51038 17.1646C6.06992 16.8673 5.60744 16.592 5.22203 16.2066C4.82562 15.8102 4.52831 15.3257 4.20897 14.8632C4.06582 14.687 3.90065 14.5219 3.74649 14.3457C3.58131 14.1695 3.42715 13.9823 3.3831 13.7621C3.25097 13.2996 2.98669 12.8811 3.01972 12.3526C3.05276 11.6038 2.87657 10.844 2.96467 10.0842C3.15186 8.43248 3.91166 6.76973 5.12293 5.63554C5.87171 4.91979 6.66454 4.16 7.62255 3.71953C10.2873 2.47523 13.5578 2.97075 15.8812 4.77664C16.4648 5.2171 16.9493 5.7897 17.3788 6.38433C17.9294 7.21019 18.3478 7.8819 18.4139 8.87294C18.4139 8.91698 18.4249 8.97204 18.4359 9.01609V9.03811C18.4689 9.5006 18.568 10.0071 18.6231 10.4586C18.6561 11.3946 18.524 12.3306 18.1936 13.1895C17.8192 14.1695 17.4338 15.1936 16.7731 16.0084C15.5288 17.539 13.6459 18.5411 11.6638 18.7833C10.5296 18.8274 9.50552 18.2768 8.58055 17.9575C8.32729 17.8694 8.04099 17.8804 7.75469 17.9575C7.45738 18.0455 7.40232 17.9575 7.25917 18.0676C7.08298 18.1887 6.89579 18.453 6.74162 18.8053C6.27914 19.7193 6.16902 21.2719 6.95084 21.4701V21.4591Z" fill="white"/>
<path d="M8.45919 10.293C8.34907 10.7114 8.34907 11.1629 8.4702 11.5813C8.70144 12.4292 9.46124 13.1119 10.3312 13.2441C11.0579 13.3762 11.8287 13.167 12.3903 12.6715C12.5885 12.4953 12.8308 12.22 12.9629 11.9007C13.1061 11.5813 13.1501 11.251 13.1061 11.0528C13.051 10.8105 12.9079 10.7334 12.7867 10.7885C12.7867 10.7334 12.9959 10.5242 12.9959 10.5242C13.1281 10.3921 12.9849 9.98464 12.8198 9.69834C12.4674 9.0817 11.8287 8.64124 11.124 8.54213C10.3862 8.43202 9.62641 8.70731 9.10887 9.21384C8.80055 9.51115 8.5693 9.89655 8.44818 10.315L8.45919 10.293Z" fill="white"/>
</svg>
