<svg width="525" height="431" viewBox="0 0 525 431" fill="none" xmlns="http://www.w3.org/2000/svg">
<g clip-path="url(#clip0_84_164)">
<path d="M59.1602 195.998C62.3922 195.755 63.9073 196.422 67.2808 196.462C70.0684 196.503 73.9671 195.876 76.573 195.796C81.6433 195.654 86.653 195.008 91.7637 194.927C98.9349 194.826 106.106 194.765 113.257 194.745L140.204 194.785L148.264 194.826L148.123 177.009C148.123 176.342 148.123 175.534 148.123 174.969C148.123 174.787 148.123 174.666 148.123 174.504C148.123 168 148.083 161.495 147.86 155.011C147.739 151.354 147.456 142.325 147.578 141.517C147.78 140.163 147.032 132.043 146.992 130.669C146.972 129.599 146.244 119.115 146.063 116.387C146.063 113.256 146.224 110.105 146.406 106.974C146.749 101.278 147.093 89.9653 146.386 84.087H146.426L146.265 77.1178C146.285 76.8148 146.305 76.5522 146.345 76.1684C146.426 74.6533 146.305 72.9363 146.123 71.1586C145.941 62.1896 145.78 53.2206 145.598 44.2516L145.174 23.6876L144.548 0.457031L137.437 6.63837C132.892 10.5977 128.367 14.557 123.822 18.496C121.6 20.3747 119.358 22.2735 117.115 24.1724L114.045 26.6772L111.984 28.2731C102.127 35.7472 92.6323 43.7466 83.0169 51.6046C80.8959 53.3418 79.2394 54.9377 77.381 56.6345L77.0376 56.9577C76.9164 57.0789 76.9568 57.0385 76.9164 57.0991L76.7346 57.2809C76.6134 57.4021 76.472 57.5233 76.3306 57.6445C76.0478 57.8667 75.7044 58.089 75.3811 58.19C75.3408 58.1294 75.2397 58.0081 75.1387 57.8667C74.8155 57.5637 74.4115 57.0385 74.1287 56.6547C74.1691 56.6547 73.8863 56.4325 73.6439 56.2507L72.9369 55.6851C72.4521 55.3215 71.9875 54.9579 71.5431 54.6145C70.6542 53.9277 69.8058 53.3216 69.119 52.857C63.9275 49.4432 61.1802 47.9281 55.9685 44.5546C50.171 40.7974 44.4138 36.9795 38.6567 33.1414L13.3253 15.9912C10.0326 13.7489 6.67936 11.3047 3.18468 8.71902C3.08368 10.8805 3.00288 13.0217 2.90188 15.163C2.67967 20.0515 2.45747 24.839 2.37667 29.7477C2.29586 34.616 2.37667 39.8075 2.76047 44.6758C3.44729 49.8674 3.9927 54.3721 3.56849 60.1494C2.88168 69.4618 3.38669 78.7136 3.36649 88.0866C3.32609 102.954 3.26549 116.185 2.55847 131.013C2.35647 135.315 1.48785 139.679 1.77065 143.901C2.47767 154.425 1.16464 163.838 0.700027 175.05C0.518223 179.655 2.76048 190.725 5.50774 192.079C7.10358 192.866 9.10342 191.695 10.7195 192.402C14.4767 194.018 21.0217 187.17 20.9813 180.968C20.9409 174.423 20.4763 167.878 20.3955 161.334C20.3147 154.506 20.6783 147.638 20.4157 140.83C20.2137 135.416 18.7188 129.982 18.9612 124.69C19.2239 119.034 18.4158 113.58 19.1431 107.54C20.2137 98.8333 19.2643 89.5815 19.3653 80.5519C19.4259 71.1991 19.5067 61.7654 19.5673 52.3116L19.6279 45.2213V44.494V44.292V43.9082L19.6885 43.1608C19.7491 42.1912 19.8501 41.3226 19.9511 40.6762L20.5773 41.2216C21.1025 41.7064 21.5267 42.0094 21.9913 42.272C22.2135 42.4134 22.4559 42.5346 22.6983 42.6558L23.0821 42.8578L24.9406 44.0496C30.2937 47.5039 35.6468 50.8774 40.7777 54.3721L76.2902 78.6328L106.49 53.1802L119.176 42.373L122.347 39.6661L123.923 38.3127L124.408 37.8885L124.63 37.6865L126.408 36.03C127.357 35.1412 128.367 34.2524 129.357 33.404L129.417 37.3229C129.417 38.1915 129.478 38.9995 129.539 39.8075V40.1105L129.579 40.7974C129.579 41.4438 129.619 42.0902 129.64 42.7366C129.66 44.0294 129.7 45.2819 129.72 46.5545C129.801 51.6248 129.761 56.6749 129.256 62.3916C129.236 62.9371 129.195 63.5431 129.155 64.1289V64.4117C128.832 69.8254 128.993 76.0068 129.276 81.4407C129.357 92.5509 129.397 103.661 129.236 114.711C129.054 127.417 130.124 140.285 130.407 152.708L130.751 169.353L130.953 177.777L128.63 177.817H120.61L102.046 177.878C89.0165 177.453 75.967 175.029 63.3821 174.868C60.0288 174.827 56.5543 175.332 53.807 176.383C50.9184 177.534 50.0094 177.211 48.9791 178.039C47.7671 179.009 47.3025 180.807 47.4439 182.908C47.8479 188.584 52.7768 196.462 59.14 195.998H59.1602Z" fill="#4A5D57"/>
<path d="M316.453 389.619C316.17 386.468 316.797 384.973 316.797 381.68C316.797 378.953 316.09 375.175 315.989 372.63C315.766 367.681 315.019 362.793 314.878 357.823C314.433 343.845 314.211 329.846 314.009 315.847L313.948 302.009C313.948 301.666 313.948 301.222 313.948 300.919C313.948 300.777 313.948 300.696 313.948 300.555C313.948 294.212 313.908 287.869 313.706 281.526C313.585 277.951 313.322 269.143 313.443 268.355C313.645 267.022 312.898 259.104 312.878 257.75C312.837 257.225 312.676 254.417 312.474 251.387C312.413 250.64 312.373 249.872 312.312 249.125C312.292 248.741 312.252 248.377 312.231 248.014C312.211 247.428 312.171 246.862 312.151 246.317C312.05 243.994 311.949 242.034 311.908 240.883C311.868 235.59 312.009 230.116 312.171 224.419C312.292 220.339 312.393 214.602 312.413 207.956C305.929 212.865 297.97 219.127 293.041 223.531V223.49L283.446 231.187C283.001 231.51 282.638 231.752 282.092 232.156C281.668 232.479 281.244 232.803 280.779 233.126C280.476 233.368 280.173 233.631 279.85 233.893C279.224 234.439 278.598 235.004 277.971 235.61L257.427 252.054L247.206 260.336L244.661 262.416L243.388 263.467L242.964 263.81L242.823 263.952L241.59 265.144L240.459 264.598L239.833 264.315L237.813 263.103L233.51 260.497C230.662 258.74 227.834 256.902 225.066 254.902C220.178 251.367 215.188 247.953 210.158 244.579L192.988 233.166C188.827 230.419 185.352 228.379 181.656 226.096C177.918 223.793 174 221.268 168.182 217.087C168.182 217.208 168.162 217.45 168.141 217.713C168.081 220.541 167.879 224.5 167.697 228.641C167.535 232.762 167.374 237.065 167.414 240.095C167.455 242.903 167.495 245.347 167.535 247.63C167.556 248.761 167.596 249.852 167.616 250.902C167.616 251.407 167.636 251.892 167.657 252.397L167.697 253.245C167.818 255.528 167.939 257.811 168.02 260.841C168.404 274.335 168.525 287.829 168.646 301.323C168.687 304.878 168.404 308.433 168.121 311.968C167.677 317.746 167.232 322.735 167.98 328.27C168.667 333.34 169.212 337.744 168.788 343.38C168.101 352.47 168.606 361.5 168.586 370.651C168.525 381.64 168.444 391.942 168.384 402.385C173.555 402.466 178.767 402.547 184.059 402.628C185.271 402.648 186.504 402.689 187.736 402.709C188.504 402.729 189.271 402.769 190.039 402.79C191.574 402.85 193.129 402.931 194.725 402.992C198.927 403.194 203.189 404.062 207.29 403.779C217.552 403.072 226.763 404.385 237.692 404.85C242.176 405.032 253.004 402.79 254.317 400.042C255.084 398.446 253.933 396.447 254.62 394.831C256.195 391.073 249.529 384.528 243.469 384.569C237.086 384.609 230.702 385.074 224.299 385.155C217.633 385.235 210.926 384.872 204.28 385.134C198.988 385.336 193.695 386.831 188.524 386.589L187.17 386.548H186.746C186.463 386.548 186.18 386.569 185.877 386.609C185.292 386.67 184.625 386.75 184.039 386.73C184.059 386.266 184.14 385.72 184.342 385.175C184.484 384.811 184.585 384.508 184.645 384.245L184.746 383.841L184.787 383.66C184.787 383.66 184.787 383.579 184.807 383.235C184.867 381.054 184.847 378.852 184.807 376.65C184.726 372.226 184.504 367.762 184.544 363.358C184.726 343.925 184.686 324.169 185.271 304.676C185.635 292.273 184.746 279.688 184.665 267.588L184.524 247.408L199.634 257.124C208.866 263.063 218.138 268.961 227.43 274.779L233.591 278.698L242.419 284.395L256.7 273.062C265.629 265.992 271.931 260.174 281.385 254.155C281.83 253.851 282.314 253.508 282.779 253.205L283.001 253.043C285.183 251.569 287.466 249.872 289.688 248.115L291.344 246.781L291.91 246.317L292.071 246.155C292.294 245.933 292.516 245.691 292.738 245.468C293.728 244.741 294.657 244.074 295.485 243.509C295.425 244.802 295.324 246.034 295.182 247.084C295.142 247.387 295.122 247.65 295.122 247.933L295.182 251.589C295.263 254.7 295.384 257.811 295.526 260.922C295.788 267.123 296.132 273.305 296.253 279.365L297.566 348.107C297.344 360.833 295.142 373.6 295.202 385.902C295.202 389.174 295.768 392.568 296.879 395.235C298.071 398.022 297.768 398.931 298.616 399.921C299.606 401.093 301.424 401.517 303.505 401.335C309.181 400.83 316.978 395.901 316.393 389.7L316.453 389.619Z" fill="#4A5D57"/>
<path d="M350.047 206.785C348.734 204.684 348.815 203.351 347.724 201.007C346.815 199.068 344.936 196.684 343.987 194.927C342.149 191.513 339.866 188.362 338.068 184.887C333.018 175.151 328.19 165.313 323.362 155.455C321.766 152.203 320.251 148.93 318.716 145.658C318.595 145.416 318.453 145.092 318.373 144.89C318.332 144.789 318.292 144.729 318.231 144.648L315.04 137.901L313.403 134.548L312.575 132.891C312.312 132.386 311.908 131.578 311.969 131.72C311.727 131.376 311.02 130.245 311.141 130.205C311.262 130.184 310.919 129.801 310.515 129.356C310.656 129.235 310.797 129.094 310.878 129.094C310.959 129.094 311.222 128.912 311.666 128.71C312.09 128.508 312.696 128.265 312.959 128.185H313.201H313.262H313.484L313.929 128.144L315.726 128.084C316.938 128.084 318.13 128.084 319.342 128.084C321.524 128.084 324.796 128.043 328.049 127.841C329.685 127.74 331.321 127.619 332.816 127.437C333.563 127.356 334.291 127.255 334.957 127.154C335.806 127.013 336.593 126.872 337.3 126.75V126.791L346.855 125.862C347.3 125.862 347.663 125.841 348.229 125.821C350.39 125.74 352.713 125.417 354.976 125.074H355.077C354.309 114.731 353.542 104.388 352.774 94.066C352.168 86.4505 351.138 78.8955 349.865 71.3607C348.956 66.0884 347.886 60.9171 347.401 55.5236L347.037 51.9481L346.209 46.0091L345.259 39.848L344.775 36.7573L344.653 35.9897L344.613 35.7877C344.613 35.7877 344.492 35.7877 344.431 35.7675H344.047L342.512 35.7271L322.312 35.5049C317.847 35.4241 314.878 36.2725 308.899 35.5049C306.293 35.3635 301.384 34.7171 298.819 34.7777C294.071 34.8989 291.688 35.2221 286.921 35.3837L282.072 35.5453L276.396 35.6665L259.529 35.8483C259.589 42.6155 259.63 49.3624 259.69 56.1296C259.731 58.9172 259.448 61.7049 259.165 64.4724C258.721 68.9973 258.276 72.9161 259.024 77.239C259.71 81.2185 260.256 84.6526 259.832 89.0765C259.145 96.1871 259.65 103.277 259.63 110.449C259.589 121.821 259.529 131.942 258.822 143.295C258.62 146.587 257.751 149.92 258.034 153.152C258.741 161.192 257.428 168.404 256.963 176.989C256.781 180.504 259.024 188.988 261.771 190.018C263.367 190.624 265.367 189.715 266.983 190.261C270.74 191.493 277.285 186.261 277.244 181.514C277.204 176.504 276.739 171.494 276.659 166.485C276.578 161.253 276.941 156.021 276.679 150.809C276.477 146.668 274.982 142.507 275.224 138.467C275.487 134.144 274.679 129.962 275.406 125.357C276.477 118.69 275.527 111.62 275.628 104.712C275.81 89.5007 275.77 74.007 276.356 58.7354L276.436 55.0185V54.3923V54.0691C276.396 53.6247 276.315 53.1399 276.214 52.5743C276.578 52.4733 277.002 52.3723 277.487 52.2915L278.254 52.1703C279.386 52.1501 280.537 52.1299 281.648 52.1097L321.221 51.9279L329.24 51.8875C330.008 51.9683 331.281 51.4633 331.139 52.6551L331.402 53.9277L332.109 58.0284L333.685 67.664C334.695 74.0676 335.442 80.5317 336.068 86.9757C336.533 91.3592 336.937 95.1973 337.22 99.0152C337.361 100.934 337.462 102.833 337.502 104.813C337.502 105.297 337.502 105.803 337.502 106.308V107.055V107.237V107.297L337.462 107.419C337.381 107.722 337.3 108.004 337.159 108.247C337.119 108.348 337.098 108.449 337.058 108.53V108.57C336.917 108.893 336.856 109.216 336.856 109.58C336.25 109.58 335.785 109.701 335.26 109.863L334.25 109.923L331.079 110.166L324.736 110.651C320.514 110.954 316.272 111.236 312.05 111.459C309.707 111.64 307.363 111.822 305.02 112.004L297.748 112.691C293.021 113.196 288.294 113.721 283.587 114.226C287.365 121.539 291.001 128.548 294.374 135.336L319.221 185.352C323.241 194.483 325.483 204.502 329.604 213.208C330.695 215.531 332.331 217.693 334.21 219.107C336.21 220.582 336.25 221.349 337.321 221.693C338.613 222.097 340.371 221.612 342.189 220.602C347.158 217.814 352.552 210.966 349.986 206.805L350.047 206.785Z" fill="#4A5D57"/>
<path d="M519.691 415.334C518.378 413.233 518.458 411.9 517.367 409.557C516.458 407.618 514.58 405.234 513.63 403.476C511.792 400.063 509.509 396.911 507.712 393.437C502.662 383.7 497.834 373.863 493.006 364.005C491.41 360.753 489.895 357.48 488.36 354.208C488.238 353.965 488.097 353.642 488.016 353.44C487.976 353.339 487.935 353.278 487.875 353.198L484.683 346.451L483.047 343.097L482.219 341.441C481.956 340.936 481.552 340.128 481.613 340.269C481.37 339.926 480.663 338.795 480.784 338.754C480.906 338.734 480.562 338.35 480.158 337.906C480.3 337.785 480.441 337.643 480.522 337.643C480.603 337.643 480.865 337.461 481.31 337.259C481.734 337.057 482.34 336.815 482.602 336.734H482.845H482.905H483.128L483.572 336.694L485.37 336.633C486.582 336.633 487.774 336.633 488.986 336.633C491.167 336.633 494.44 336.593 497.692 336.391C499.328 336.29 500.965 336.169 502.46 335.987C503.207 335.906 503.934 335.805 504.601 335.704C505.449 335.563 506.237 335.421 506.944 335.3V335.34L516.499 334.411C516.943 334.411 517.307 334.391 517.872 334.371C520.034 334.29 522.357 333.967 524.619 333.623H524.72C523.953 323.281 523.185 312.938 522.418 302.616C521.812 295 520.781 287.445 519.509 279.91C518.6 274.638 517.529 269.467 517.044 264.073L516.681 260.498L515.852 254.559L514.903 248.398L514.418 245.307L514.297 244.539L514.257 244.337C514.257 244.337 514.135 244.337 514.075 244.317H513.691L512.156 244.277L491.955 244.054C487.491 243.974 484.522 244.822 478.542 244.054C475.936 243.913 471.028 243.267 468.462 243.327C463.715 243.448 461.331 243.772 456.564 243.933L451.716 244.095L446.04 244.216L429.172 244.398C429.233 251.165 429.273 257.912 429.334 264.679C429.374 267.467 429.091 270.254 428.809 273.022C428.364 277.547 427.92 281.466 428.667 285.789C429.354 289.768 429.899 293.202 429.475 297.626C428.788 304.737 429.293 311.827 429.273 318.998C429.233 330.371 429.172 340.491 428.465 351.844C428.263 355.137 427.395 358.47 427.677 361.702C428.384 369.742 427.071 376.953 426.607 385.538C426.425 389.053 428.667 397.538 431.414 398.568C433.01 399.174 435.01 398.265 436.626 398.81C440.383 400.042 446.928 394.81 446.888 390.063C446.848 385.054 446.383 380.044 446.302 375.034C446.221 369.802 446.585 364.57 446.322 359.359C446.12 355.218 444.626 351.056 444.868 347.016C445.131 342.693 444.323 338.512 445.05 333.906C446.12 327.24 445.171 320.17 445.272 313.261C445.454 298.05 445.413 282.557 445.999 267.285L446.08 263.568V262.942V262.619C446.04 262.174 445.959 261.689 445.858 261.124C446.221 261.023 446.646 260.922 447.13 260.841L447.898 260.72C449.029 260.7 450.181 260.679 451.292 260.659L490.864 260.477L498.884 260.437C499.652 260.518 500.924 260.013 500.783 261.205L501.045 262.477L501.752 266.578L503.328 276.214C504.338 282.617 505.086 289.081 505.712 295.525C506.176 299.909 506.58 303.747 506.863 307.565C507.005 309.484 507.106 311.383 507.146 313.362C507.146 313.847 507.146 314.352 507.146 314.857V315.604V315.786V315.847L507.106 315.968C507.025 316.271 506.944 316.554 506.803 316.796C506.762 316.897 506.742 316.998 506.702 317.079V317.12C506.56 317.443 506.5 317.766 506.5 318.13C505.894 318.13 505.429 318.251 504.904 318.412L503.894 318.473L500.722 318.715L494.379 319.2C490.157 319.503 485.915 319.786 481.693 320.008C479.35 320.19 477.007 320.372 474.664 320.554L467.392 321.24C462.665 321.745 457.938 322.271 453.231 322.776C457.008 330.088 460.645 337.098 464.018 343.885L488.865 393.901C492.885 403.032 495.127 413.052 499.248 421.758C500.338 424.081 501.975 426.242 503.853 427.656C505.853 429.131 505.894 429.899 506.964 430.242C508.257 430.646 510.014 430.161 511.833 429.151C516.802 426.364 522.195 419.516 519.63 415.354L519.691 415.334Z" fill="#4A5D57"/>
<path d="M399.195 253.044C399.356 254.922 398.669 255.791 398.548 257.75C398.447 259.366 399.013 261.649 399.033 263.164C399.094 266.113 399.659 269.042 399.659 272.012C399.679 280.334 399.558 288.677 399.498 297.02L399.336 305.262C399.336 305.464 399.316 305.726 399.316 305.908C399.316 305.989 399.316 306.05 399.316 306.13C399.235 309.908 399.215 313.706 399.376 317.483C399.457 319.624 399.72 324.876 399.599 325.341C399.397 326.129 400.144 330.856 400.184 331.664C400.184 332.29 400.972 338.391 401.194 339.966C401.235 341.804 401.093 343.643 400.952 345.461C400.649 348.774 400.588 355.561 401.316 358.51H401.275C401.336 359.722 401.356 360.894 401.356 362.065C401.316 362.207 401.295 362.348 401.255 362.53C401.114 363.257 401.174 364.106 401.255 364.954C400.912 369.62 399.659 373.56 397.498 376.529C395.417 379.519 391.922 381.882 387.802 383.821C384.872 385.114 381.64 386.144 378.206 386.104C372.187 386.003 366.066 385.235 360.935 382.993C359.763 382.428 358.672 382.205 357.662 381.68C356.572 381.256 355.562 380.488 354.572 379.236C353.542 378.286 352.471 375.984 351.764 374.933C350.41 372.954 349.562 371.903 348.572 369.297C346.35 363.419 346.189 355.824 345.805 347.764C345.704 345.683 345.926 343.562 346.148 341.481C346.512 338.067 346.875 335.118 346.027 331.886C345.259 328.917 344.653 326.331 345.017 322.998C345.603 317.624 344.977 312.312 344.896 306.918C344.795 298.353 344.754 290.738 345.401 282.213C345.583 279.728 346.431 277.224 346.128 274.8C345.401 268.76 346.673 263.326 347.138 256.882C347.32 254.235 345.078 247.852 342.35 247.064C340.755 246.6 338.755 247.266 337.139 246.862C333.381 245.913 326.837 249.852 326.857 253.427C326.897 257.225 327.342 261.003 327.443 264.8C327.544 268.76 327.18 272.719 327.463 276.658C327.685 279.789 329.2 282.92 328.998 285.991C328.756 289.263 329.624 292.414 328.917 295.909C327.927 300.959 328.917 306.312 328.937 311.524C328.937 323.038 329.281 334.754 329.038 346.309C328.978 350.006 329.18 353.602 329.543 357.5C329.927 361.399 330.533 365.439 331.402 369.519C332.614 375.176 334.796 381.236 338.815 386.427C340.775 389.013 343.158 391.356 345.744 393.215L347.683 394.608C348.35 395.053 349.037 395.396 349.703 395.78C350.39 396.164 351.057 396.548 351.744 396.891L353.824 397.82C359.42 400.204 365.217 401.396 370.975 401.719C376.752 402.022 382.529 401.456 388.145 399.921C393.72 398.386 399.336 396.103 404.346 392.144C407.78 389.538 410.204 386.326 412.103 383.074C414.002 379.781 415.436 376.388 416.89 372.57C417.032 372.206 417.112 371.782 417.234 371.398L417.274 371.196C418.385 367.52 418.567 363.278 418.304 359.823C418.304 356.248 418.102 352.935 418.042 349.824C417.941 346.653 417.9 343.501 417.941 340.35C418.001 333.098 416.931 325.765 416.729 318.675C416.345 305.262 416.405 291.808 416.567 278.355C417.133 270.901 419.779 263.507 420.183 256.296C420.284 254.377 419.88 252.377 418.87 250.741C417.799 249.044 418.122 248.539 417.314 247.892C416.365 247.145 414.587 246.802 412.487 246.802C406.79 246.781 398.831 249.266 399.154 252.983L399.195 253.044Z" fill="#4A5D57"/>
<path d="M229.147 44.4536C229.309 46.3323 228.622 47.1807 228.521 49.1199C228.42 50.736 228.986 52.9984 229.006 54.5135C229.066 57.4627 229.652 60.3716 229.652 63.3209C229.693 71.6031 229.571 79.9054 229.491 88.2078L229.329 96.4092C229.329 96.6112 229.309 96.8738 229.309 97.0556C229.309 97.1364 229.309 97.197 229.309 97.2778C229.228 101.035 229.208 104.813 229.369 108.57C229.45 110.691 229.693 115.923 229.592 116.387C229.39 117.175 230.137 121.882 230.157 122.67C230.157 123.296 230.945 129.356 231.147 130.932C231.187 132.75 231.046 134.588 230.884 136.406C230.581 139.679 230.501 146.466 231.228 149.435H231.187C231.268 150.647 231.288 151.839 231.288 153.011C231.268 153.173 231.228 153.294 231.208 153.496C231.046 154.223 231.167 155.092 231.208 155.92C230.925 160.627 229.773 164.687 227.733 167.737C225.753 170.787 222.481 173.191 218.441 175.151C215.613 176.484 212.421 177.534 209.048 177.514C203.129 177.413 197.069 176.625 192.099 174.322C191.534 174.04 190.988 173.838 190.423 173.656C189.918 173.434 189.413 173.211 188.908 172.969C188.362 172.747 187.878 172.444 187.393 172.02C186.908 171.616 186.363 171.151 185.959 170.464C184.989 169.474 183.959 167.212 183.312 166.101C181.999 164.061 181.211 162.97 180.262 160.323C178.181 154.344 178.02 146.729 177.656 138.709C177.555 136.628 177.798 134.527 178 132.447C178.363 129.053 178.727 126.104 177.899 122.892C177.131 119.943 176.545 117.377 176.889 114.044C177.474 108.711 176.848 103.419 176.788 98.0455C176.687 89.5209 176.666 81.9457 177.313 73.4615C177.495 70.997 178.343 68.4922 178.06 66.0883C177.333 60.0686 178.606 54.6751 179.09 48.2513C179.272 45.6253 177.03 39.2823 174.303 38.4743C172.707 38.0097 170.707 38.6763 169.091 38.2723C165.334 37.3229 158.789 41.2418 158.809 44.8172C158.85 48.5947 159.294 52.352 159.395 56.1295C159.496 60.0686 159.132 64.0077 159.395 67.9266C159.617 71.0375 161.132 74.1685 160.93 77.2188C160.688 80.4711 161.556 83.6021 160.849 87.0968C159.839 92.1267 160.849 97.4395 160.849 102.631C160.849 114.085 161.173 125.74 160.91 137.255C160.849 140.931 161.051 144.527 161.395 148.365C161.738 152.203 162.324 156.203 163.112 160.263C163.677 163.071 164.425 165.959 165.516 168.828C166.627 171.696 168.101 174.524 169.98 177.171C173.717 182.524 179.171 186.544 184.686 189.028C190.261 191.533 196.079 192.806 201.856 193.149C207.634 193.472 213.431 192.887 219.067 191.291C224.663 189.695 230.238 187.19 235.126 183.089C238.46 180.342 240.762 177.07 242.54 173.777C244.318 170.464 245.631 167.07 246.964 163.273C247.085 162.909 247.186 162.485 247.287 162.121L247.328 161.919C248.358 158.263 248.459 154.102 248.196 150.708C248.196 147.173 247.994 143.941 247.934 140.83C247.853 137.679 247.812 134.528 247.853 131.396C247.934 124.185 246.863 116.893 246.661 109.822C246.297 96.4698 246.358 83.0769 246.52 69.684C247.065 62.2502 249.711 54.8973 250.115 47.7261C250.216 45.8273 249.812 43.8274 248.802 42.2114C247.711 40.5145 248.055 40.0095 247.247 39.3833C246.297 38.6359 244.52 38.3127 242.419 38.2925C236.722 38.2723 228.763 40.7772 229.087 44.4738L229.147 44.4536Z" fill="#4A5D57"/>
<path d="M241.35 208.374L230.337 219.387L241.35 230.4L252.363 219.387L241.35 208.374Z" fill="#3D514B"/>
<path d="M253.933 216.077C253.63 215.895 253.67 215.632 253.428 215.37C253.226 215.148 252.782 215.006 252.559 214.845C252.135 214.501 251.61 214.279 251.206 213.915C250.075 212.905 248.984 211.835 247.913 210.744L246.883 209.653C246.883 209.653 246.823 209.592 246.802 209.572H246.762L246.055 208.784L244.701 207.451C244.176 206.966 242.924 205.775 242.823 205.613C242.641 205.33 241.55 204.522 241.348 204.34L241.328 204.361C241.187 204.522 239.833 206.138 239.47 206.562C239.066 206.946 238.621 207.29 238.177 207.633C237.975 207.795 237.712 208.017 237.429 208.239C237.167 208.461 236.904 208.704 236.621 208.946C236.278 209.249 235.955 209.572 235.813 209.875L235.308 210.4C235.288 210.4 235.248 210.441 235.207 210.461C235.066 210.542 234.965 210.703 234.864 210.865L232.682 213.107L231.612 214.259L230.258 215.794C229.43 216.743 228.703 217.632 227.673 218.501L226.622 219.43C227.773 220.743 229.107 222.076 230.4 223.43C230.581 223.632 230.783 223.814 230.945 223.955L231.288 224.197C231.511 224.379 231.733 224.581 231.935 224.965C232.157 225.248 232.48 225.894 232.763 226.116C233.248 226.561 233.571 226.702 234.076 227.147C234.642 227.631 235.187 228.116 235.732 228.601L237.611 230.379C238.096 230.843 238.5 231.389 238.965 231.975C239.692 232.904 240.419 233.853 241.187 234.257L241.368 234.358C241.995 233.449 242.479 232.762 243.186 232.237C243.813 231.773 244.439 231.167 245.045 230.54L246.378 229.126C247.509 228.015 248.519 227.046 249.792 226.096C250.156 225.813 250.701 225.692 250.943 225.308C251.57 224.359 252.58 223.955 253.529 223.228C253.913 222.925 254.216 221.571 253.671 220.804C253.347 220.359 252.802 219.996 252.458 219.551C251.691 218.541 249.63 217.511 249.186 217.996C248.701 218.501 248.317 219.087 247.853 219.612C247.368 220.137 246.762 220.582 246.297 221.147C245.934 221.612 245.893 222.359 245.429 222.703C244.944 223.066 244.722 223.672 244.095 223.955C243.186 224.359 242.722 225.268 242.015 225.935C241.692 226.197 241.55 226.339 241.328 226.5C241.187 226.318 241.065 226.116 240.985 225.935C240.924 225.834 240.985 225.894 240.803 225.712C240.56 225.49 240.298 225.268 240.035 225.046C239.51 224.622 238.985 224.197 238.5 223.733L235.349 220.642L234.5 219.834L234.036 219.43C234.137 219.289 234.238 219.147 234.359 218.986C234.419 218.885 234.52 218.784 234.621 218.683L235.551 217.753C236.44 216.885 236.945 216.077 238.076 215.491L238.237 215.39H238.258C238.763 215.087 239.207 214.602 239.571 214.138L240.803 212.986C240.904 212.926 241.005 212.865 241.106 212.845C241.187 212.845 241.247 212.744 241.328 212.602C241.429 212.602 241.57 212.602 241.712 212.724C241.651 212.623 242.863 213.794 243.691 214.622L246.378 217.228C247.267 218.299 247.691 219.834 248.6 220.824C248.843 221.087 249.226 221.228 249.691 221.188C250.176 221.127 250.176 221.268 250.438 221.147C250.762 221.006 251.226 220.622 251.691 220.117C253.004 218.743 254.479 216.521 253.893 216.158L253.933 216.077Z" fill="#4A5D57"/>
</g>
<defs>
<clipPath id="clip0_84_164">
<rect width="524" height="429.906" fill="white" transform="translate(0.699951 0.457031)"/>
</clipPath>
</defs>
</svg>
