{
	"asset":{
		"version":"2.0",
		"generator":"Maxon Cinema 4D 2023.2.1 (#200000219)"
	},
	"scenes":[{
		"nodes":[0,
		1]
	}],
	"nodes":[{
		"name":"Booléen",
		"children":[2]
	},
	{
		"name":"Booléen.1",
		"mesh":0
	},
	{
		"name":"salle",
		"mesh":1
	}],
	"meshes":[{
		"name":"Booléen.1",
		"primitives":[{
			"attributes":{
				"POSITION":1,
				"NORMAL":2,
				"TEXCOORD_0":3
			},
			"indices":0
		}]
	},
	{
		"name":"salle",
		"primitives":[{
			"attributes":{
				"POSITION":5,
				"NORMAL":6,
				"TEXCOORD_0":7
			},
			"indices":4
		}]
	}],
	"accessors":[{
		"bufferView":0,
		"type":"SCALAR",
		"componentType":5123,
		"count":252,
		"byteOffset":0,
		"min":[0],
		"max":[251]
	},
	{
		"bufferView":1,
		"type":"VEC3",
		"componentType":5126,
		"count":252,
		"byteOffset":0,
		"min":[-4.823146343231201,
		-2.200000047683716,
		-2.5],
		"max":[4.823146343231201,
		2.0,
		2.6627466678619386]
	},
	{
		"bufferView":1,
		"type":"VEC3",
		"componentType":5126,
		"count":252,
		"byteOffset":12,
		"min":[-1.0,
		-1.0,
		-1.0],
		"max":[1.0,
		1.0,
		1.0]
	},
	{
		"bufferView":1,
		"type":"VEC2",
		"componentType":5126,
		"count":252,
		"byteOffset":24,
		"min":[0.0,
		0.0],
		"max":[1.0,
		1.0]
	},
	{
		"bufferView":2,
		"type":"SCALAR",
		"componentType":5123,
		"count":150,
		"byteOffset":0,
		"min":[0],
		"max":[149]
	},
	{
		"bufferView":3,
		"type":"VEC3",
		"componentType":5126,
		"count":150,
		"byteOffset":0,
		"min":[-3.700000047683716,
		-2.200000047683716,
		-2.5],
		"max":[3.700000047683716,
		2.0,
		2.6627466678619386]
	},
	{
		"bufferView":3,
		"type":"VEC3",
		"componentType":5126,
		"count":150,
		"byteOffset":12,
		"min":[-1.0,
		-1.0,
		-1.0],
		"max":[1.0,
		1.0,
		1.0]
	},
	{
		"bufferView":3,
		"type":"VEC2",
		"componentType":5126,
		"count":150,
		"byteOffset":24,
		"min":[0.0,
		0.0],
		"max":[1.0,
		1.0]
	}],
	"bufferViews":[{
		"buffer":0,
		"byteOffset":0,
		"byteLength":504,
		"target":34963
	},
	{
		"buffer":0,
		"byteOffset":504,
		"byteLength":8064,
		"target":34962,
		"byteStride":32
	},
	{
		"buffer":1,
		"byteOffset":0,
		"byteLength":300,
		"target":34963
	},
	{
		"buffer":1,
		"byteOffset":300,
		"byteLength":4800,
		"target":34962,
		"byteStride":32
	}],
	"buffers":[{
		"uri":"data:application/octet-stream;base64,",
		"byteLength":8568
	},
	{
		"uri":"data:application/octet-stream;base64,",
		"byteLength":5100
	}]
}