{
	"asset":{
		"version":"2.0",
		"generator":"Maxon Cinema 4D 2025.2.1 (#200000219)"
	},
	"scenes":[{
		"nodes":[0,
		1]
	}],
	"nodes":[{
		"name":"fiole",
		"mesh":0,
		"translation":[0.0,
		0.009999999776482582,
		0.0],
		"rotation":[0.0,
		0.0,
		0.0,
		-1.0],
		"scale":[1.0,
		1.0,
		1.0]
	},
	{
		"name":"bouchon",
		"mesh":1,
		"translation":[0.0,
		0.10043110698461533,
		0.0],
		"rotation":[0.0,
		0.0,
		0.0,
		-1.0],
		"scale":[1.0,
		1.0,
		1.0]
	}],
	"meshes":[{
		"name":"fiole",
		"primitives":[{
			"attributes":{
				"POSITION":1,
				"NORMAL":2,
				"TEXCOORD_0":3
			},
			"indices":0
		}]
	},
	{
		"name":"bouchon",
		"primitives":[{
			"attributes":{
				"POSITION":5,
				"NORMAL":6,
				"TEXCOORD_0":7
			},
			"indices":4
		}]
	}],
	"accessors":[{
		"bufferView":0,
		"type":"SCALAR",
		"componentType":5123,
		"count":372,
		"byteOffset":0,
		"min":[0],
		"max":[149]
	},
	{
		"bufferView":1,
		"type":"VEC3",
		"componentType":5126,
		"count":150,
		"byteOffset":0,
		"min":[-0.01995963044464588,
		-0.009999999776482582,
		-0.01995963044464588],
		"max":[0.01995963044464588,
		0.0817960575222969,
		0.01995963044464588]
	},
	{
		"bufferView":1,
		"type":"VEC3",
		"componentType":5126,
		"count":150,
		"byteOffset":12,
		"min":[-0.9912077188491821,
		-1.0,
		-0.9919661283493042],
		"max":[0.9912077188491821,
		1.0,
		0.9919661283493042]
	},
	{
		"bufferView":1,
		"type":"VEC2",
		"componentType":5126,
		"count":150,
		"byteOffset":24,
		"min":[-0.23223939538002015,
		-0.27283525466918948],
		"max":[1.2728352546691895,
		1.2728352546691895]
	},
	{
		"bufferView":2,
		"type":"SCALAR",
		"componentType":5123,
		"count":84,
		"byteOffset":0,
		"min":[0],
		"max":[47]
	},
	{
		"bufferView":3,
		"type":"VEC3",
		"componentType":5126,
		"count":48,
		"byteOffset":0,
		"min":[-0.011294965632259846,
		-0.008369428105652333,
		-0.011294965632259846],
		"max":[0.011294965632259846,
		0.00689062150195241,
		0.011294965632259846]
	},
	{
		"bufferView":3,
		"type":"VEC3",
		"componentType":5126,
		"count":48,
		"byteOffset":12,
		"min":[-0.9871821403503418,
		-1.0,
		-0.9871821403503418],
		"max":[0.9871821403503418,
		1.0,
		0.9871821403503418]
	},
	{
		"bufferView":3,
		"type":"VEC2",
		"componentType":5126,
		"count":48,
		"byteOffset":24,
		"min":[-0.3149721026420593,
		0.0],
		"max":[1.314972162246704,
		1.031259298324585]
	}],
	"bufferViews":[{
		"buffer":0,
		"byteOffset":0,
		"byteLength":744,
		"target":34963
	},
	{
		"buffer":0,
		"byteOffset":744,
		"byteLength":4800,
		"target":34962,
		"byteStride":32
	},
	{
		"buffer":1,
		"byteOffset":0,
		"byteLength":168,
		"target":34963
	},
	{
		"buffer":1,
		"byteOffset":168,
		"byteLength":1536,
		"target":34962,
		"byteStride":32
	}],
	"buffers":[{
		"byteLength":5544,
		"uri":"data:application/octet-stream;base64,"
	},
	{
		"byteLength":1704,
		"uri":"data:application/octet-stream;base64,"
	}]
}